<svg width="20" height="16" viewBox="0 0 20 16" fill="none" xmlns="http://www.w3.org/2000/svg">
<path d="M16.6704 1.32631C15.4152 0.71242 14.0693 0.260131 12.6621 0.00108666C12.6364 -0.00391282 12.6108 0.00858115 12.5976 0.0335697C12.4245 0.361747 12.2328 0.789881 12.0985 1.12639C10.5849 0.884845 9.07912 0.884845 7.59657 1.12639C7.46228 0.782401 7.26358 0.361747 7.0897 0.0335697C7.0765 0.00941489 7.0509 -0.00307908 7.02527 0.00108666C5.6188 0.259303 4.27287 0.711592 3.01697 1.32631C3.0061 1.33131 2.99678 1.33965 2.9906 1.35047C0.437655 5.4161 -0.261703 9.3818 0.0813786 13.2983C0.0829309 13.3175 0.0930214 13.3358 0.106993 13.3475C1.79135 14.666 3.42294 15.4665 5.02423 15.9971C5.04986 16.0054 5.07701 15.9954 5.09332 15.9729C5.4721 15.4215 5.80976 14.8401 6.09926 14.2287C6.11635 14.1929 6.10004 14.1504 6.06512 14.1363C5.52954 13.9197 5.01957 13.6557 4.52901 13.3558C4.49021 13.3317 4.4871 13.2725 4.5228 13.2442C4.62603 13.1617 4.72929 13.0759 4.82786 12.9893C4.84569 12.9735 4.87055 12.9701 4.89151 12.9801C8.11428 14.5486 11.6033 14.5486 14.7881 12.9801C14.809 12.9693 14.8339 12.9726 14.8525 12.9885C14.9511 13.0751 15.0543 13.1617 15.1583 13.2442C15.194 13.2725 15.1917 13.3317 15.1529 13.3558C14.6623 13.6615 14.1524 13.9197 13.616 14.1354C13.5811 14.1496 13.5656 14.1929 13.5826 14.2287C13.8784 14.8393 14.216 15.4207 14.5878 15.9721C14.6033 15.9954 14.6313 16.0054 14.6569 15.9971C16.266 15.4665 17.8975 14.666 19.5819 13.3475C19.5966 13.3358 19.606 13.3183 19.6075 13.2992C20.0181 8.77122 18.9198 4.83804 16.696 1.3513C16.6905 1.33965 16.6812 1.33131 16.6704 1.32631ZM6.58053 10.9136C5.61026 10.9136 4.81078 9.96403 4.81078 8.79789C4.81078 7.63175 5.59475 6.6822 6.58053 6.6822C7.57405 6.6822 8.36579 7.64009 8.35026 8.79789C8.35026 9.96403 7.56628 10.9136 6.58053 10.9136ZM13.1239 10.9136C12.1536 10.9136 11.3542 9.96403 11.3542 8.79789C11.3542 7.63175 12.1381 6.6822 13.1239 6.6822C14.1174 6.6822 14.9092 7.64009 14.8937 8.79789C14.8937 9.96403 14.1174 10.9136 13.1239 10.9136Z" fill="black"/>
</svg>
