<svg width="19" height="18" viewBox="0 0 19 18" fill="none" xmlns="http://www.w3.org/2000/svg">
<path d="M9 1.62112C11.403 1.62112 11.6876 1.63125 12.6371 1.674C13.2077 1.68086 13.7728 1.78589 14.3077 1.9845C14.699 2.12904 15.0527 2.35973 15.3427 2.6595C15.6425 2.94952 15.8732 3.30325 16.0177 3.6945C16.2164 4.22943 16.3214 4.79456 16.3282 5.36513C16.371 6.31463 16.3811 6.60262 16.3811 9.00225C16.3811 11.4019 16.371 11.6899 16.3282 12.6394C16.3214 13.2099 16.2164 13.7751 16.0177 14.31C15.8683 14.6982 15.6392 15.0508 15.345 15.345C15.0508 15.6392 14.6982 15.8683 14.31 16.0177C13.7751 16.2164 13.2099 16.3214 12.6394 16.3283C11.6899 16.371 11.4019 16.3811 9.00225 16.3811C6.60262 16.3811 6.31462 16.371 5.36512 16.3283C4.79456 16.3214 4.22943 16.2164 3.6945 16.0177C3.30325 15.8732 2.94952 15.6425 2.6595 15.3427C2.35973 15.0527 2.12904 14.699 1.9845 14.3078C1.78589 13.7728 1.68086 13.2077 1.674 12.6371C1.63125 11.6876 1.62112 11.3996 1.62112 9C1.62112 6.60038 1.63125 6.31238 1.674 5.36287C1.68086 4.79231 1.78589 4.22718 1.9845 3.69225C2.12904 3.301 2.35973 2.94727 2.6595 2.65725C2.94952 2.35748 3.30325 2.12679 3.6945 1.98225C4.22943 1.78364 4.79456 1.67861 5.36512 1.67175C6.31462 1.629 6.60262 1.61888 9.00225 1.61888L9 1.62112ZM9 0C6.55537 0 6.24937 0.010125 5.2875 0.054C4.54158 0.0691689 3.80362 0.210673 3.105 0.4725C2.50421 0.698128 1.96009 1.05255 1.51087 1.51088C1.05255 1.96009 0.698128 2.50421 0.4725 3.105C0.210673 3.80362 0.0691689 4.54158 0.054 5.2875C0.010125 6.24937 0 6.55538 0 9C0 11.4446 0.010125 11.7506 0.054 12.7125C0.0691689 13.4584 0.210673 14.1964 0.4725 14.895C0.698128 15.4958 1.05255 16.0399 1.51087 16.4891C1.96009 16.9474 2.50421 17.3019 3.105 17.5275C3.80433 17.7896 4.54307 17.9311 5.28975 17.946C6.24937 17.9899 6.55537 18 9 18C11.4446 18 11.7506 17.9899 12.7125 17.946C13.4592 17.9311 14.1979 17.7896 14.8972 17.5275C15.4951 17.2961 16.038 16.9424 16.4913 16.4891C16.9446 16.0358 17.2983 15.4928 17.5297 14.895C17.7918 14.1957 17.9333 13.4569 17.9482 12.7103C17.9921 11.7506 18.0022 11.4446 18.0022 8.99775C18.0022 6.55088 17.9921 6.24713 17.9482 5.28525C17.9321 4.53996 17.7898 3.80278 17.5275 3.105C17.3019 2.50421 16.9474 1.96009 16.4891 1.51088C16.0399 1.05255 15.4958 0.698128 14.895 0.4725C14.1964 0.210673 13.4584 0.0691689 12.7125 0.054C11.7506 0.010125 11.4446 0 9 0Z" fill="black"/>
<path d="M9.00041 4.37793C8.08636 4.37793 7.19284 4.64898 6.43284 5.15679C5.67284 5.66461 5.08049 6.38639 4.7307 7.23086C4.38091 8.07533 4.28939 9.00456 4.46771 9.90104C4.64603 10.7975 5.08619 11.621 5.73251 12.2673C6.37884 12.9137 7.20231 13.3538 8.0988 13.5321C8.99528 13.7105 9.92451 13.6189 10.769 13.2691C11.6134 12.9193 12.3352 12.327 12.843 11.567C13.3509 10.807 13.6219 9.91348 13.6219 8.99943C13.6219 8.39253 13.5024 7.79156 13.2701 7.23086C13.0379 6.67015 12.6974 6.16068 12.2683 5.73154C11.8392 5.30239 11.3297 4.96197 10.769 4.72972C10.2083 4.49747 9.60731 4.37793 9.00041 4.37793ZM9.00041 11.9998C8.40699 11.9998 7.8269 11.8238 7.33349 11.4942C6.84008 11.1645 6.45551 10.6959 6.22842 10.1476C6.00133 9.59938 5.94191 8.9961 6.05768 8.41409C6.17345 7.83207 6.45921 7.29745 6.87882 6.87784C7.29843 6.45823 7.83305 6.17248 8.41506 6.05671C8.99708 5.94094 9.60036 6.00035 10.1486 6.22744C10.6968 6.45454 11.1654 6.8391 11.4951 7.33251C11.8248 7.82592 12.0008 8.40601 12.0008 8.99943C12.0008 9.79518 11.6847 10.5583 11.122 11.121C10.5593 11.6837 9.79616 11.9998 9.00041 11.9998Z" fill="black"/>
<path d="M13.8036 5.27572C14.4001 5.27572 14.8836 4.79219 14.8836 4.19572C14.8836 3.59926 14.4001 3.11572 13.8036 3.11572C13.2072 3.11572 12.7236 3.59926 12.7236 4.19572C12.7236 4.79219 13.2072 5.27572 13.8036 5.27572Z" fill="black"/>
</svg>
