<svg width="20" height="20" viewBox="0 0 20 20" fill="none" xmlns="http://www.w3.org/2000/svg">
<path fill-rule="evenodd" clip-rule="evenodd" d="M10 11.6216C8.28415 11.6216 6.89191 10.2308 6.89191 8.5135C6.89191 6.79625 8.28415 5.4054 10 5.4054C11.7159 5.4054 13.1081 6.79625 13.1081 8.5135C13.1081 10.2308 11.7159 11.6216 10 11.6216ZM8.64866 8.5135C8.64866 9.26014 9.25399 9.86486 10 9.86486C10.746 9.86486 11.3514 9.26014 11.3514 8.5135C11.3514 7.76687 10.746 7.16215 10 7.16215C9.25399 7.16215 8.64866 7.76687 8.64866 8.5135Z" fill="black"/>
<path fill-rule="evenodd" clip-rule="evenodd" d="M0 8.51768L5.94595 2.56763H14.0541L20 8.51768L10 18.5136L0 8.51768ZM14.5946 6.35138C12.0682 3.8139 7.9318 3.81391 5.40541 6.3514L3.24324 8.51359L5.40541 10.6758C7.9318 13.2132 12.0682 13.2132 14.5946 10.6757L16.7568 8.51359L14.5946 6.35138Z" fill="black"/>
</svg>
