<svg width="20" height="18" viewBox="0 0 20 18" fill="none" xmlns="http://www.w3.org/2000/svg">
<path fill-rule="evenodd" clip-rule="evenodd" d="M20 12.55V11.505C20 11.4083 19.9067 11.3383 19.815 11.365L14.88 12.7917C14.8533 12.7983 14.83 12.8133 14.8117 12.8333C14.2836 13.4166 13.8347 13.8083 13.7152 13.9125L13.7067 13.92C13.4 14.18 13.02 14.3217 12.62 14.3217H10.8333V12.5H12.2533C12.29 12.5 12.325 12.4867 12.3517 12.4633L12.535 12.295C12.6133 12.2233 12.7067 12.1367 12.8183 12.025C12.8275 12.0158 12.8369 12.0065 12.8463 11.9971C12.9052 11.9384 12.9682 11.8756 13.03 11.8067C13.1033 11.735 13.175 11.655 13.2417 11.5767C13.3533 11.4567 13.46 11.3317 13.5717 11.2C13.6517 11.1133 13.725 11.015 13.7966 10.9167C13.8767 10.8233 13.955 10.7183 14.0283 10.6183C14.0556 10.5783 14.0846 10.5379 14.1142 10.4965C14.1425 10.457 14.1715 10.4166 14.2 10.375C14.2533 10.295 14.3067 10.21 14.3517 10.13C14.4917 9.91334 14.61 9.68165 14.71 9.45C14.7559 9.35075 14.7926 9.24626 14.8283 9.14468C14.8328 9.13196 14.8372 9.11928 14.8417 9.10667C14.8817 8.98832 14.915 8.87668 14.94 8.75833C15 8.47999 15.0133 8.20332 14.9867 7.92668C14.98 7.84001 14.9733 7.75501 14.9533 7.67498V7.66168C14.9466 7.60501 14.9333 7.54167 14.915 7.48335C14.855 7.21334 14.7616 6.94333 14.6433 6.67833C14.6033 6.57999 14.5567 6.47999 14.5117 6.38832C14.405 6.19001 14.2933 5.99167 14.1667 5.8C14.1412 5.75952 14.1132 5.71852 14.0851 5.67759C14.0635 5.64604 14.042 5.61454 14.0217 5.58335C13.9416 5.45982 13.8516 5.34074 13.7642 5.22519C13.7443 5.19884 13.7245 5.17267 13.705 5.14668C13.6532 5.0787 13.5965 5.01071 13.5395 4.94227C13.5084 4.905 13.4772 4.8676 13.4466 4.82999C13.36 4.72498 13.275 4.62498 13.1883 4.52668C12.8783 4.17668 12.5533 3.85999 12.2633 3.59001C12.21 3.53666 12.1517 3.48334 12.0917 3.43165C11.8667 3.22668 11.6617 3.04834 11.49 2.90999C11.4381 2.87009 11.3916 2.8308 11.3484 2.79423C11.3193 2.7697 11.2918 2.7464 11.265 2.72498C11.2126 2.68595 11.1672 2.65134 11.1291 2.62233C11.1054 2.60428 11.0846 2.5884 11.0667 2.57498C11.0533 2.565 11.0383 2.55833 11.0233 2.55332L10.8333 2.5V0.926676C10.8333 0.670007 10.73 0.440014 10.565 0.271665C10.4 0.103316 10.17 0 9.91665 0C9.40999 0 9 0.414997 9 0.926676V1.98666L8.90501 1.95999L8.64665 1.88666L8.41168 1.82167C8.41097 1.82167 8.41027 1.82138 8.40946 1.82104C8.40832 1.82057 8.40695 1.82001 8.40501 1.82001H8.4L6.61666 1.33666C6.53832 1.315 6.47167 1.4 6.51168 1.47167L6.79665 1.99834C6.81282 2.03875 6.83329 2.07917 6.85432 2.1207C6.86798 2.14766 6.88188 2.1751 6.89499 2.20332C6.94167 2.29668 6.98832 2.39499 7.03335 2.49333C7.07332 2.57999 7.11334 2.665 7.15999 2.75833C7.17946 2.80188 7.19932 2.84597 7.21945 2.89067C7.29408 3.05638 7.37255 3.23063 7.45 3.41835L7.45065 3.41988C7.51709 3.5777 7.58353 3.73554 7.64167 3.9C7.80166 4.315 7.95332 4.75833 8.085 5.21334C8.11774 5.31508 8.14392 5.41355 8.17045 5.51334C8.18173 5.55576 8.19308 5.59842 8.20501 5.64167L8.22332 5.72166C8.27668 5.93334 8.32333 6.14333 8.35667 6.35501C8.38335 6.5 8.40833 6.63832 8.42167 6.77833L8.42167 6.77837C8.44168 6.93668 8.46168 7.095 8.46831 7.25332C8.48165 7.39834 8.48832 7.55 8.48832 7.69499C8.48832 8.065 8.45501 8.42167 8.37668 8.75833C8.37181 8.77625 8.36695 8.7944 8.36205 8.81271C8.34005 8.89479 8.31725 8.97991 8.28998 9.06168C8.26537 9.14911 8.23345 9.23655 8.20031 9.32735C8.1886 9.35943 8.17674 9.39192 8.165 9.42498C8.16287 9.43071 8.16073 9.43646 8.1586 9.44221C8.13402 9.5084 8.10901 9.57574 8.07833 9.64167C7.91334 10.0383 7.70833 10.4333 7.49665 10.8033C7.18666 11.3517 6.87498 11.8333 6.65667 12.1433C6.64326 12.1634 6.63018 12.1826 6.61759 12.201C6.60201 12.2238 6.58716 12.2455 6.57332 12.2667C6.50501 12.3633 6.57498 12.5 6.69333 12.5H9V14.3217H6.66666C6.04001 14.3217 5.45999 13.9667 5.17999 13.3983C5.035 13.1133 4.97833 12.8 5.01168 12.4933C5.02001 12.4017 4.95166 12.315 4.85833 12.315H0.144989C0.0649967 12.315 0 12.38 0 12.46V12.5567C0 15.5633 2.42833 18 5.42498 18H13.88C15.4649 18 16.3648 16.5557 17.2494 15.1362C17.496 14.7405 17.7413 14.3467 18 13.9867C18.465 13.34 19.5833 12.8267 19.91 12.6867C19.9633 12.6633 20 12.61 20 12.55ZM1.25997 10.1684L1.19 10.2784C1.12832 10.3734 1.19663 10.5001 1.31333 10.5001H5.6533C5.70165 10.5001 5.74667 10.4767 5.77331 10.4367C5.82998 10.3501 5.88333 10.2601 5.93164 10.1684C6.30666 9.5384 6.64 8.85671 6.76167 8.3534C7.04667 7.13007 6.43831 5.16508 5.73333 3.58505C5.68665 3.48007 5.54166 3.47005 5.47998 3.56673L1.25997 10.1684Z" fill="black"/>
</svg>
