<svg width="20" height="16" viewBox="0 0 20 16" fill="none" xmlns="http://www.w3.org/2000/svg">
<path d="M20.5714 1.84615C19.8 2.21538 19.0286 2.33846 18.1286 2.46154C19.0286 1.96923 19.6714 1.23077 19.9286 0.246154C19.1571 0.738462 18.2571 0.984615 17.2286 1.23077C16.4571 0.492308 15.3 0 14.1429 0C11.9571 0 10.0286 1.84615 10.0286 4.06154C10.0286 4.43077 10.0286 4.67692 10.1571 4.92308C6.68571 4.8 3.47143 3.2 1.41429 0.738461C1.02857 1.35385 0.9 1.96923 0.9 2.83077C0.9 4.18462 1.67143 5.41538 2.82857 6.15385C2.18571 6.15385 1.54286 5.90769 0.9 5.66154C0.9 7.63077 2.31429 9.23077 4.24286 9.6C3.85714 9.72308 3.47143 9.72308 3.08571 9.72308C2.82857 9.72308 2.57143 9.72308 2.31429 9.6C2.82857 11.2 4.37143 12.4308 6.3 12.4308C4.88571 13.5385 3.08571 14.1538 1.02857 14.1538C0.642857 14.1538 0.385714 14.1538 0 14.1538C1.92857 15.2615 4.11429 16 6.42857 16C14.1429 16 18.3857 9.84615 18.3857 4.55385C18.3857 4.43077 18.3857 4.18462 18.3857 4.06154C19.2857 3.44615 20.0571 2.70769 20.5714 1.84615Z" fill="black"/>
</svg>
